<svg xmlns="http://www.w3.org/2000/svg" viewBox="0 0 24 24" width="24" height="24">
  <path d="M12.006 2c-5.522 0-9.998 4.479-9.998 10.008 0 5.531 4.476 10.01 9.998 10.01 5.522 0 9.997-4.479 9.997-10.01 0-5.528-4.475-10.008-9.997-10.008zm2.535 15.474h-1.098c-.186 0-.372-.033-.557-.1-.53-.188-1.059-.845-1.517-1.963-.186-.344-.31-.517-.372-.517-.033 0-.122.173-.248.517-.187.657-.434 1.154-.744 1.494-.372.41-.868.615-1.488.615-.621 0-1.155-.216-1.59-.647-1.178-1.134-1.851-2.647-2.028-4.522-.187-1.92.31-3.553 1.502-4.899 1.19-1.344 2.64-2.02 4.348-2.02 1.861 0 3.373.79 4.536 2.367 1.158 1.578 1.687 3.318 1.59 5.219-.064 1.493-.405 2.787-1.02 3.883-.62 1.092-1.366 1.573-2.314 1.573z"/>
</svg> 