<svg xmlns="http://www.w3.org/2000/svg" viewBox="0 0 24 24">
  <path d="M8.5,14.1c-0.5,0-1-0.4-1-1c0-0.5,0.4-1,1-1c0.5,0,1,0.4,1,1C9.5,13.7,9.1,14.1,8.5,14.1z M15.5,14.1c-0.5,0-1-0.4-1-1 c0-0.5,0.4-1,1-1c0.5,0,1,0.4,1,1C16.5,13.7,16.1,14.1,15.5,14.1z M12,2C6.5,2,2,6.5,2,12s4.5,10,10,10s10-4.5,10-10S17.5,2,12,2z M17.5,15.8c-1.2,0.7-2.7,1.1-4.2,1.1c-0.4,0-0.9,0-1.3-0.1c-1.1,0.7-2.5,1.1-3.9,1.1c-0.1,0-0.3,0-0.4,0c0.6-1,0.9-2.2,0.9-3.4 c-1.1-1-1.7-2.3-1.7-3.7c0-3.1,3.1-5.7,6.9-5.7c3.8,0,6.9,2.6,6.9,5.7C20.7,12.9,19.4,14.7,17.5,15.8z"/>
</svg> 