<svg xmlns="http://www.w3.org/2000/svg" viewBox="0 0 24 24" width="24" height="24">
  <path d="M10.01 17.38c-4.1.39-7.29-1.46-7.12-4.12.17-2.66 3.39-5.1 7.53-5.51 4.13-.41 7.33 1.28 7.15 3.94-.18 2.67-3.39 5.3-7.56 5.69zm1.45-9.99c-4.28-.43-8 1.75-8.22 4.84-.23 3.08 3.12 5.97 7.39 6.39 4.27.42 8.01-1.76 8.24-4.85.22-3.09-3.11-5.97-7.41-6.38zm-1.9 9.55c-2.1.21-3.9-1-4.02-2.7-.12-1.7 1.5-3.26 3.61-3.47 2.11-.21 3.9 1 4.02 2.7.11 1.71-1.5 3.26-3.61 3.47zm-1.36-4.9c-.69.12-1.21.58-1.16 1.04.06.46.71.74 1.4.62.69-.12 1.21-.58 1.16-1.04-.05-.46-.7-.75-1.4-.62z"/>
  <path d="M19.89 5.7c-.26-.3-.64-.44-1.01-.38-.37.06-.69.3-.87.62-.18.32-.19.7-.03 1.03.16.33.46.56.84.61.68.09 1.31-.35 1.4-1 .06-.38-.07-.69-.33-.88zm-1.71-1.76c-.76 0-1.5.3-2.03.82-1.52 1.47-1.23 3.96.66 5.56 2.64 2.17 6.49.75 6.49-2.6 0-2.3-1.94-3.78-5.12-3.78zM19 10.28c-1.57.95-3.71.65-5.01-.67-1.31-1.32-1.33-2.95-.05-3.93 1.49-1.14 3.49-.72 4.72.54 1.24 1.26 1.05 3.18.34 4.06z"/>
</svg> 