<svg xmlns="http://www.w3.org/2000/svg" viewBox="0 0 24 24">
  <path d="M5.721 0C2.251 0 0 2.25 0 5.719V18.28C0 21.751 2.252 24 5.721 24h12.56C21.751 24 24 21.75 24 18.281V5.72C24 2.249 21.75 0 18.281 0zm1.964 4.078h8.607c.142.005.282.012.422.021l.412 1.596h.15s.104-.54.217-1.307c.103-.708.217-1.457.217-1.457a5.713 5.713 0 0 1 .67.053v1.687h3.557v10.049h-2.077V5.891h-1.48v8.829h-1.828V5.891h-1.488v8.829H12.19v1.686h4.654v1.687H7.685v-1.687h4.382v-1.686H7.685V5.891H5.608v8.829H3.682V5.891H2.202v8.829H.375V4.078h7.31z"/>
</svg> 